<svg xmlns="http://www.w3.org/2000/svg" viewBox="0 0 24.01 24.01"><defs><style>.cls-2{fill:none;}.cls-1{fill:#0B9AF5;}</style></defs><title>left</title><g id="Layer_2" data-name="Layer 2"><g id="Layer_1-2" data-name="Layer 1"><g><path class="cls-2" d="M12,0A12,12,0,1,0,24,12,12,12,0,0,0,12,0Zm0,22.32A10.31,10.31,0,1,1,22.32,12,10.33,10.33,0,0,1,12,22.32Zm0,0"/><path class="cls-1" d="M14.78,6a.82.82,0,0,0-.6-.25.86.86,0,0,0-.6.25L8.12,11.47a.85.85,0,0,0,0,1.2l5.46,5.46a.85.85,0,1,0,1.2-1.2L9.92,12.07l4.86-4.86a.85.85,0,0,0,0-1.2Zm0,0"/></g></g></g></svg>
