<svg xmlns="http://www.w3.org/2000/svg" xmlns:xlink="http://www.w3.org/1999/xlink" version="1.1" x="0px" y="0px" viewBox="0 0 100 125" style="enable-background:new 0 0 100 100;" xml:space="preserve"><g><path fill="#ab1b5c" d="M50,88.5c21.2,0,38.5-17.3,38.5-38.5S71.2,11.5,50,11.5S11.5,28.8,11.5,50S28.8,88.5,50,88.5z M50,16.5   c18.5,0,33.5,15,33.5,33.5S68.5,83.5,50,83.5S16.5,68.5,16.5,50S31.5,16.5,50,16.5z"/><path fill="#ab1b5c" d="M36.2,63.8c0.5,0.5,1.1,0.7,1.8,0.7s1.3-0.2,1.8-0.7L50,53.5l10.3,10.3c0.5,0.5,1.1,0.7,1.8,0.7s1.3-0.2,1.8-0.7   c1-1,1-2.6,0-3.5L53.5,50l10.3-10.3c1-1,1-2.6,0-3.5c-1-1-2.6-1-3.5,0L50,46.5L39.7,36.2c-1-1-2.6-1-3.5,0c-1,1-1,2.6,0,3.5   L46.5,50L36.2,60.3C35.2,61.2,35.2,62.8,36.2,63.8z"/></g></svg>
