<svg xmlns="http://www.w3.org/2000/svg" viewBox="0 0 24.01 24.01"><defs><style>.cls-1{fill:#0B9AF5;}.cls-2{fill:none;}</style></defs><title>Right</title><g id="Layer_2" data-name="Layer 2"><g id="Layer_1-2" data-name="Layer 1"><path class="cls-2" d="M12,24A12,12,0,1,0,0,12,12,12,0,0,0,12,24ZM12,1.69A10.31,10.31,0,1,1,1.69,12,10.33,10.33,0,0,1,12,1.69Zm0,0"/><path class="cls-1" d="M9.24,18a.82.82,0,0,0,.6.25.86.86,0,0,0,.6-.25l5.46-5.46a.85.85,0,0,0,0-1.2L10.44,5.89a.85.85,0,1,0-1.2,1.2l4.86,4.86L9.24,16.8a.85.85,0,0,0,0,1.2Zm0,0"/></g></g></svg>
