<svg xmlns="http://www.w3.org/2000/svg" viewBox="0 0 18.33 19.86"><defs><style>.cls-1{fill:#a7a9ac;}</style></defs><title>t_down</title><g id="Layer_2" data-name="Layer 2"><g id="Layer_1-2" data-name="Layer 1"><path class="cls-1" d="M.58,8.76A3.45,3.45,0,0,0,0,10.71a2.93,2.93,0,0,0,.91,2.14,2.94,2.94,0,0,0,2.15.91h2.1A5.24,5.24,0,0,0,4.58,16,5,5,0,0,0,5,18.26a2.62,2.62,0,0,0,1.22,1.21,4.08,4.08,0,0,0,1.8.39,1.51,1.51,0,0,0,1.07-.44,2.88,2.88,0,0,0,.74-1.29q.23-.79.36-1.51a2,2,0,0,1,.42-1q.58-.63,1.28-1.53a10.57,10.57,0,0,1,1.64-1.85h3.27a1.53,1.53,0,0,0,1.53-1.53V3.06A1.47,1.47,0,0,0,17.89,2a1.47,1.47,0,0,0-1.08-.45H13.37a8.88,8.88,0,0,1-1.65-.48Q10.25.54,9.14.27A9.6,9.6,0,0,0,6.88,0H5.33A3.8,3.8,0,0,0,2.63,1a3.38,3.38,0,0,0-1,2.62A3.36,3.36,0,0,0,.89,5.71a3.67,3.67,0,0,0,0,.51A3.43,3.43,0,0,0,.48,7.94a3.13,3.13,0,0,0,.11.82ZM15.5,3.28a.76.76,0,1,1,1.07,1.07A.76.76,0,1,1,15.5,3.28ZM1.78,9.73c.17-.37.38-.55.64-.56a1.63,1.63,0,0,1-.3-.57A2.15,2.15,0,0,1,2,7.94a1.89,1.89,0,0,1,.63-1.42,1.64,1.64,0,0,1-.22-.82,2,2,0,0,1,.21-.88,1.33,1.33,0,0,1,.57-.63,4,4,0,0,1-.06-.67q0-2,2.29-2H6.87A13.19,13.19,0,0,1,11,2.4l.35.13.42.15.42.14.45.13L13,3l.38,0h.38v7.64h-.38a1,1,0,0,0-.42.11,2,2,0,0,0-.48.32l-.46.42a6.74,6.74,0,0,0-.48.53l-.41.51-.38.49-.27.36q-.66.81-.92,1.09a3,3,0,0,0-.71,1.31q-.22.79-.36,1.5a2,2,0,0,1-.45,1,1.73,1.73,0,0,1-1.53-.56A3.11,3.11,0,0,1,6.11,16a4.88,4.88,0,0,1,.57-1.92,4.86,4.86,0,0,0,.57-1.9H3.06A1.47,1.47,0,0,1,2,11.76a1.45,1.45,0,0,1-.47-1.07,2.34,2.34,0,0,1,.26-1Zm0,0"/></g></g></svg>