<svg xmlns="http://www.w3.org/2000/svg" viewBox="0 0 18.33 19.86"><defs><style>.cls-1{fill:#a7a9ac;}</style></defs><title>t_up</title><g id="Layer_2" data-name="Layer 2"><g id="Layer_1-2" data-name="Layer 1"><path class="cls-1" d="M17.75,11.1a3.45,3.45,0,0,0,.58-1.94,3.1,3.1,0,0,0-3.06-3h-2.1a5.24,5.24,0,0,0,.57-2.29,5,5,0,0,0-.42-2.22A2.62,2.62,0,0,0,12.11.39,4.08,4.08,0,0,0,10.31,0,1.51,1.51,0,0,0,9.24.44,2.88,2.88,0,0,0,8.5,1.73q-.23.79-.36,1.51a2,2,0,0,1-.42,1q-.58.63-1.28,1.53A10.57,10.57,0,0,1,4.8,7.64H1.53a1.47,1.47,0,0,0-1.08.45A1.47,1.47,0,0,0,0,9.17v7.64a1.47,1.47,0,0,0,.45,1.08,1.47,1.47,0,0,0,1.08.45H5a8.88,8.88,0,0,1,1.65.48q1.47.51,2.58.78a9.6,9.6,0,0,0,2.26.27H13a3.8,3.8,0,0,0,2.71-1,3.38,3.38,0,0,0,1-2.62,3.36,3.36,0,0,0,.72-2.12,3.67,3.67,0,0,0,0-.51,3.43,3.43,0,0,0,.45-1.72,3.13,3.13,0,0,0-.11-.82ZM2.83,16.58a.75.75,0,0,1-1.07,0,.75.75,0,0,1,0-1.07.75.75,0,0,1,1.07,0,.75.75,0,0,1,0,1.07Zm13.72-6.45c-.17.37-.38.55-.64.56a1.63,1.63,0,0,1,.3.57,2.15,2.15,0,0,1,.12.66,1.89,1.89,0,0,1-.63,1.42,1.64,1.64,0,0,1,.22.82,2,2,0,0,1-.21.88,1.33,1.33,0,0,1-.57.63,4,4,0,0,1,.06.67q0,2-2.29,2H11.46a13.19,13.19,0,0,1-4.08-.87L7,17.34l-.42-.15-.42-.14-.45-.13-.39-.08-.38,0H4.58V9.17H5a1,1,0,0,0,.42-.11,2,2,0,0,0,.48-.32l.46-.42a6.74,6.74,0,0,0,.48-.53l.41-.51.38-.49.27-.36q.66-.81.92-1.09A3,3,0,0,0,9.49,4q.22-.79.36-1.5a2,2,0,0,1,.45-1,1.73,1.73,0,0,1,1.53.56,3.11,3.11,0,0,1,.38,1.73,4.88,4.88,0,0,1-.57,1.92,4.86,4.86,0,0,0-.57,1.9h4.2a1.47,1.47,0,0,1,1.06.46,1.45,1.45,0,0,1,.47,1.07,2.34,2.34,0,0,1-.26,1Zm0,0"/></g></g></svg>
